<?xml version="1.0" encoding="utf-8"?>
<!-- Generator: Adobe Illustrator 19.0.0, SVG Export Plug-In . SVG Version: 6.00 Build 0)  -->
<svg version="1.1" id="图层_1" xmlns="http://www.w3.org/2000/svg" xmlns:xlink="http://www.w3.org/1999/xlink" x="0px" y="0px"
	 width="32px" height="32px" viewBox="0 0 32 32" style="enable-background:new 0 0 32 32;" xml:space="preserve">
<style type="text/css">
	.st0{clip-path:url(#SVGID_2_);fill:#34A8E2;}
	.st1{clip-path:url(#SVGID_2_);fill:#FFFFFF;}
</style>
<g>
	<defs>
		<rect id="SVGID_1_" x="0" width="32" height="32"/>
	</defs>
	<clipPath id="SVGID_2_">
		<use xlink:href="#SVGID_1_"  style="overflow:visible;"/>
	</clipPath>
	<path class="st0" d="M16,0C7.2,0,0,7.2,0,16s7.2,16,16,16s16-7.2,16-16S24.8,0,16,0"/>
	<path class="st1" d="M22.4,8.7c1.7,0,2.6,1,2.6,3c0,0.1,0,0.3,0,0.4c-0.1,1.6-1.3,3.9-3.7,6.7c-2.4,3-4.5,4.4-6.2,4.5
		c-1.1,0-1.9-0.9-2.6-2.7l-0.7-2.5L11,15.6c-0.5-1.8-1.1-2.7-1.7-2.7c-0.1,0-0.6,0.3-1.4,0.8l-0.9-1l1.3-1.1l1.3-1.1
		c1.2-0.9,2.1-1.4,2.7-1.5c0.1,0,0.2,0,0.2,0c1.2,0,2,0.9,2.3,2.7c0.2,1,0.3,1.9,0.4,2.5c0.1,0.6,0.2,1.1,0.3,1.3
		c0.4,1.7,0.9,2.6,1.3,2.6c0.4,0,0.9-0.6,1.7-1.7c0.8-1.1,1.2-2,1.2-2.5c0-0.1,0-0.2,0-0.3c0-0.7-0.4-1.1-1.2-1.1
		c-0.4,0-0.9,0.1-1.3,0.3c0.8-2.6,2.5-3.9,4.9-3.9H22.4z"/>
</g>
</svg>
