<?xml version="1.0" encoding="utf-8"?>
<!-- Generator: Adobe Illustrator 19.0.0, SVG Export Plug-In . SVG Version: 6.00 Build 0)  -->
<svg version="1.1" id="图层_1" xmlns="http://www.w3.org/2000/svg" xmlns:xlink="http://www.w3.org/1999/xlink" x="0px" y="0px"
	 width="312px" height="113.2px" viewBox="0 0 312 113.2" style="enable-background:new 0 0 312 113.2;" xml:space="preserve">
<style type="text/css">
	.st0{clip-path:url(#SVGID_2_);fill:#E62B1E;}
</style>
<g>
	<defs>
		<rect id="SVGID_1_" width="312" height="113.2"/>
	</defs>
	<clipPath id="SVGID_2_">
		<use xlink:href="#SVGID_1_"  style="overflow:visible;"/>
	</clipPath>
	<path class="st0" d="M311.9,52.9c-0.3-2.9-0.4-5.9-0.8-8.8c-0.8-6.3-2.5-12.3-5.2-18c-5-10.5-12.7-18.1-23.5-22.4
		c-6.7-2.6-13.6-3.6-20.7-3.6c-18.9,0-37.8,0-56.7,0c-0.2,0-0.5,0-0.7,0.1v113h1.2c16,0,32,0,48,0c4.1,0,8.3-0.2,12.4-0.7
		c6.3-0.8,12.3-2.3,18.1-4.9c9.2-4.2,16.3-10.6,21.1-19.5c4.1-7.6,6-15.9,6.7-24.4c0.1-1.4,0.2-2.9,0.3-4.3v-5.6
		C312,53.4,311.9,53.2,311.9,52.9 M274.3,71.6c-2.9,6.8-8.3,10.8-15.6,12.2c-2.2,0.4-4.5,0.5-6.7,0.6c-4.1,0.1-8.1,0-12.2,0
		c-0.8,0-1-0.2-1-1c0-12.6-0.1-25.2-0.2-37.7c0-5.1-0.1-10.2-0.1-15.4c0-0.3,0-0.6,0-1c0.4,0,0.6-0.1,0.8-0.1c4.4,0,8.8,0,13.2,0.1
		c4.9,0.2,9.7,1.4,13.9,4.1c5.3,3.4,8.4,8.4,9.8,14.5C278.1,56,277.5,63.9,274.3,71.6"/>
	<path class="st0" d="M97.7,0.1v28.7c-0.3,0-0.6,0-1,0c-9.8,0-19.7,0-29.5,0c-1,0-1,0-1,1v83.2H31.5V30.4c0-0.2,0-0.5,0-0.7
		c0.1-0.7-0.2-0.9-0.9-0.9c-10.2,0-20.4,0-30.7,0V0c0.4,0,0.8,0.1,1.2,0.1c31.8,0,63.6,0,95.5,0H97.7z"/>
	<path class="st0" d="M138.1,28.8v14h60.1V70H138v1c0,4.1,0,8.3,0,12.4c0,1,0,1,1,1h59.2v28.7c-0.3,0-0.6,0-1,0c-31,0-62,0-93,0
		c-1,0-1,0-1-1V0.1h94.9v28.7H138.1z"/>
</g>
</svg>
