<?xml version="1.0" encoding="utf-8"?>
<!-- Generator: Adobe Illustrator 19.0.0, SVG Export Plug-In . SVG Version: 6.00 Build 0)  -->
<svg version="1.1" id="图层_1" xmlns="http://www.w3.org/2000/svg" xmlns:xlink="http://www.w3.org/1999/xlink" x="0px" y="0px"
	 width="80px" height="80px" viewBox="0 0 80 80" style="enable-background:new 0 0 80 80;" xml:space="preserve">
<style type="text/css">
	.st0{fill:#E62B1E;}
	.st1{fill:#FFFFFF;}
</style>
<circle class="st0" cx="40" cy="40" r="40"/>
<g>
	<path class="st1" d="M74.7,39.2c-0.1-0.7-0.1-1.3-0.2-2c-0.2-1.4-0.6-2.7-1.2-4c-1.1-2.3-2.8-4-5.2-5c-1.5-0.6-3-0.8-4.6-0.8
		c-4.2,0-8.4,0-12.6,0c-0.1,0-0.1,0-0.2,0v25.2H51c3.6,0,7.1,0,10.7,0c0.9,0,1.8,0,2.8-0.2c1.4-0.2,2.8-0.5,4-1.1
		c2.1-0.9,3.6-2.4,4.7-4.4c0.9-1.7,1.3-3.5,1.5-5.4c0-0.3,0-0.6,0.1-1v-1.3C74.7,39.3,74.7,39.2,74.7,39.2z M66.4,43.3
		c-0.7,1.5-1.8,2.4-3.5,2.7c-0.5,0.1-1,0.1-1.5,0.1c-0.9,0-1.8,0-2.7,0c-0.2,0-0.2-0.1-0.2-0.2c0-2.8,0-5.6,0-8.4c0-1.1,0-2.3,0-3.4
		c0-0.1,0-0.1,0-0.2c0.1,0,0.1,0,0.2,0c1,0,2,0,2.9,0c1.1,0,2.2,0.3,3.1,0.9c1.2,0.8,1.9,1.9,2.2,3.2C67.2,39.9,67.1,41.6,66.4,43.3
		z"/>
	<path class="st1" d="M27,27.4v6.4c-0.1,0-0.1,0-0.2,0c-2.2,0-4.4,0-6.6,0c-0.2,0-0.2,0-0.2,0.2v18.5h-7.7V34.2c0-0.1,0-0.1,0-0.2
		c0-0.2,0-0.2-0.2-0.2c-2.3,0-4.6,0-6.8,0v-6.4c0.1,0,0.2,0,0.3,0c7.1,0,14.2,0,21.3,0H27z"/>
	<path class="st1" d="M36,33.8v3.1h13.4v6H36v0.2c0,0.9,0,1.8,0,2.8c0,0.2,0,0.2,0.2,0.2h13.2v6.4c-0.1,0-0.1,0-0.2,0
		c-6.9,0-13.8,0-20.7,0c-0.2,0-0.2,0-0.2-0.2v-25h21.2v6.4H36z"/>
</g>
</svg>
